HIERARCHY
ROOT Hips
{
	OFFSET 0.00000 0.00000 0.00000
	CHANNELS 6 Xposition Yposition Zposition Zrotation Yrotation Xrotation 
	JOINT LHipJoint
	{
		OFFSET 0 0 0
		CHANNELS 3 Zrotation Yrotation Xrotation
		JOINT LeftUpLeg
		{
			OFFSET 1.64577 -1.42384 0.94276
			CHANNELS 3 Zrotation Yrotation Xrotation
			JOINT LeftLeg
			{
				OFFSET 2.11538 -5.81197 0.00000
				CHANNELS 3 Zrotation Yrotation Xrotation
				JOINT LeftFoot
				{
					OFFSET 2.36541 -6.49893 0.00000
					CHANNELS 3 Zrotation Yrotation Xrotation
					JOINT LeftToeBase
					{
						OFFSET 0.17759 -0.48793 1.73865
						CHANNELS 3 Zrotation Yrotation Xrotation
						End Site
						{
							OFFSET 0.00000 -0.00000 0.91205
						}
					}
				}
			}
		}
	}
	JOINT RHipJoint
	{
		OFFSET 0 0 0
		CHANNELS 3 Zrotation Yrotation Xrotation
		JOINT RightUpLeg
		{
			OFFSET -1.43750 -1.42384 0.94276
			CHANNELS 3 Zrotation Yrotation Xrotation
			JOINT RightLeg
			{
				OFFSET -2.10480 -5.78291 0.00000
				CHANNELS 3 Zrotation Yrotation Xrotation
				JOINT RightFoot
				{
					OFFSET -2.34880 -6.45329 0.00000
					CHANNELS 3 Zrotation Yrotation Xrotation
					JOINT RightToeBase
					{
						OFFSET -0.22842 -0.62757 1.80469
						CHANNELS 3 Zrotation Yrotation Xrotation
						End Site
						{
							OFFSET -0.00000 -0.00000 0.95886
						}
					}
				}
			}
		}
	}
	JOINT LowerBack
	{
		OFFSET 0 0 0
		CHANNELS 3 Zrotation Yrotation Xrotation
		JOINT Spine
		{
			OFFSET 0.06217 1.93758 -0.49272
			CHANNELS 3 Zrotation Yrotation Xrotation
			JOINT Spine1
			{
				OFFSET -0.03114 2.03621 -0.05830
				CHANNELS 3 Zrotation Yrotation Xrotation
				JOINT Neck
				{
					OFFSET 0 0 0
					CHANNELS 3 Zrotation Yrotation Xrotation
					JOINT Neck1
					{
						OFFSET 0.04421 1.41010 0.26562
						CHANNELS 3 Zrotation Yrotation Xrotation
						JOINT Head
						{
							OFFSET -0.13407 1.43847 0.06181
							CHANNELS 3 Zrotation Yrotation Xrotation
							End Site
							{
								OFFSET -0.04980 1.45844 -0.00689
							}
						}
					}
				}
				JOINT LeftShoulder
				{
					OFFSET 0 0 0
					CHANNELS 3 Zrotation Yrotation Xrotation
					JOINT LeftArm
					{
						OFFSET 2.18382 1.47753 -0.35694
						CHANNELS 3 Zrotation Yrotation Xrotation
						JOINT LeftForeArm
						{
							OFFSET 5.05460 -0.00000 0.00000
							CHANNELS 3 Zrotation Yrotation Xrotation
							JOINT LeftHand
							{
								OFFSET 3.39013 -0.00000 0.00000
								CHANNELS 3 Zrotation Yrotation Xrotation
								JOINT LeftFingerBase
								{
									OFFSET 0 0 0
									CHANNELS 3 Zrotation Yrotation Xrotation
									JOINT LeftHandIndex1
									{
										OFFSET 0.57242 -0.00000 -0.00000
										CHANNELS 3 Zrotation Yrotation Xrotation
										End Site
										{
											OFFSET 0.46150 -0.00000 -0.00000
										}
									}
								}
								JOINT LThumb
								{
									OFFSET 0 0 0
									CHANNELS 3 Zrotation Yrotation Xrotation
									End Site
									{
										OFFSET 0.46855 -0.00000 0.46855
									}
								}
							}
						}
					}
				}
				JOINT RightShoulder
				{
					OFFSET 0 0 0
					CHANNELS 3 Zrotation Yrotation Xrotation
					JOINT RightArm
					{
						OFFSET -2.06033 1.72839 -0.47437
						CHANNELS 3 Zrotation Yrotation Xrotation
						JOINT RightForeArm
						{
							OFFSET -5.07010 -0.00000 0.00000
							CHANNELS 3 Zrotation Yrotation Xrotation
							JOINT RightHand
							{
								OFFSET -3.14957 -0.00000 -0.00000
								CHANNELS 3 Zrotation Yrotation Xrotation
								JOINT RightFingerBase
								{
									OFFSET 0 0 0
									CHANNELS 3 Zrotation Yrotation Xrotation
									JOINT RightHandIndex1
									{
										OFFSET -0.71819 -0.00000 -0.00000
										CHANNELS 3 Zrotation Yrotation Xrotation
										End Site
										{
											OFFSET -0.57902 -0.00000 -0.00000
										}
									}
								}
								JOINT RThumb
								{
									OFFSET 0 0 0
									CHANNELS 3 Zrotation Yrotation Xrotation
									End Site
									{
										OFFSET -0.58786 -0.00000 0.58786
									}
								}
							}
						}
					}
				}
			}
		}
	}
}
MOTION
Frames: 12
Frame Time: .0083333
16.8344 15.4259 -0.6086 0 0 0 0 0 0 -21 0 0 0 0 0 0 0 0 0 0 0 0 0 0 21 0 0 0 0 0 0 0 0 0 0 0 0 0 0 0 0 0 0 0 0 0 0 -16 0 0 21 0 0 11 0 0 0 -8 0 0 0 0 0 0 0 0 0 0 0 0 0 0 0 0 0 0 0 0 8 0 0 0 0 0 0 0 0 0 0 0 0 0 0 0 0 0
16.8344 15.4259 -0.6086 -173.7660 -80.0346 170.0890 0.0000 0.0000 0.0000 -21.7427 -15.1197 5.8446 1.5888 7.9512 22.5660 1.3745 18.6498 -35.4225 0.0041 0.4155 1.1417 0.0000 0.0000 0.0000 25.8518 15.5117 6.0210 -1.2374 -7.0540 19.8754 -2.2966 -19.5898 -40.8680 -0.2660 3.3181 -9.1658 -1.6274 1.4807 4.9575 -0.4687 1.8432 2.5166 0.3378 0.8871 -0.2289 0.2335 -6.0844 -5.8075 2.2084 -8.3170 5.3272 0.3152 -4.0617 2.7936 0.0000 -0.0000 0.0000 -85.3825 6.5051 21.5128 16.2279 -25.8287 -3.7447 -0.0000 -0.0000 2.8741 15.9290 9.8757 2.8024 -7.1250 0.0000 -0.0000 -9.6943 40.0570 1.1942 0.0000 -0.0000 0.0000 87.1406 -3.9617 32.2679 -13.3288 21.7671 -2.5740 0.0000 0.0000 0.7425 -18.3649 -2.5285 0.8391 7.1250 -0.0000 -0.0000 6.6543 -32.5947 2.0335
16.8356 15.4300 -0.6083 -174.7740 -80.1949 171.2180 0.0000 0.0000 0.0000 -21.9877 -15.3934 5.8460 1.5700 7.9063 22.4299 1.2892 19.0017 -35.3024 0.0019 0.2794 0.7678 0.0000 0.0000 0.0000 25.5626 15.4148 5.7824 -1.2442 -7.0725 19.9303 -2.2767 -19.6303 -40.8122 -0.2993 3.5177 -9.7237 -1.7772 1.5021 4.8941 -0.5718 1.8663 2.4553 0.3155 0.8989 -0.2582 0.3927 -6.0307 -5.9350 2.1861 -8.2600 5.3679 0.2791 -4.0294 2.8219 -0.0000 -0.0000 0.0000 -85.2969 6.5633 21.6057 16.2857 -25.9065 -3.7699 -0.0000 -0.0000 2.9041 16.2870 9.4810 2.7554 -7.1250 0.0000 -0.0000 -9.3124 39.6826 1.2328 -0.0000 -0.0000 0.0000 87.2486 -3.9590 32.3137 -13.5745 22.1232 -2.6658 0.0000 -0.0000 -3.0014 -17.9765 -2.0016 0.6493 7.1250 -0.0000 -0.0000 6.9190 -32.0343 2.2095
16.8366 15.4345 -0.6070 -174.7890 -80.3353 171.3670 0.0000 0.0000 0.0000 -21.9873 -15.5331 5.7015 1.5711 7.9088 22.4375 1.2562 19.0731 -35.1920 0.0008 0.1771 0.4866 0.0000 0.0000 0.0000 25.4710 15.3417 5.6520 -1.2323 -7.0398 19.8334 -2.2754 -19.6308 -40.8064 -0.2987 3.5139 -9.7130 -1.7339 1.5044 4.7916 -0.6326 1.8739 2.4324 0.2310 0.9037 -0.2214 0.5577 -5.9718 -5.9663 2.1291 -8.1887 5.2828 0.2375 -3.9935 2.7876 0.0000 0.0000 0.0000 -85.1680 6.5030 21.8242 16.2775 -25.8955 -3.7664 -0.0000 -0.0000 2.7967 16.7246 9.1568 2.7377 -7.1250 0.0000 -0.0000 -8.8788 39.3845 1.2401 0.0000 0.0000 0.0000 87.3315 -3.9117 32.3686 -13.8505 22.5206 -2.7706 0.0000 -0.0000 -6.7536 -17.5181 -1.5517 0.4897 7.1250 -0.0000 -0.0000 7.2452 -31.5556 2.3991
16.8369 15.4380 -0.6059 -173.7000 -80.3774 170.3740 0.0000 0.0000 0.0000 -21.7584 -15.5598 5.6375 1.5576 7.8764 22.3393 1.2285 19.0877 -35.0531 0.0002 0.0914 0.2510 0.0000 0.0000 0.0000 25.6556 15.4382 5.5838 -1.2349 -7.0470 19.8547 -2.3111 -19.6160 -40.9562 -0.2850 3.4332 -9.4874 -1.5277 1.4846 4.7118 -0.5991 1.8591 2.4526 0.1533 0.8976 -0.1508 0.6592 -5.8633 -6.1134 2.0150 -8.0445 5.2565 0.1864 -3.9224 2.7946 -0.0000 0.0000 0.0000 -85.1048 6.3414 22.0429 16.2097 -25.8041 -3.7368 -0.0000 -0.0000 2.5823 17.1205 8.8923 2.7261 -7.1250 0.0000 -0.0000 -8.4941 39.1426 1.2363 -0.0000 0.0000 0.0000 87.3056 -3.9676 33.7631 -14.3169 23.1859 -2.9517 0.0000 -0.0000 -10.2216 -17.0616 -1.0820 0.3320 7.1250 -0.0000 -0.0000 7.5663 -31.0593 2.5979
16.8382 15.4402 -0.6034 -174.2180 -80.5170 170.9800 0.0000 0.0000 0.0000 -21.8548 -15.6463 5.5952 1.5400 7.8339 22.2108 1.1976 19.0841 -34.8773 0.0003 0.1031 0.2834 0.0000 0.0000 0.0000 25.4809 15.3810 5.4150 -1.2437 -7.0711 19.9263 -2.3555 -19.4766 -41.0392 -0.2681 3.3307 -9.2008 -1.6166 1.4545 4.6250 -0.6248 1.8174 2.4620 0.1811 0.8757 -0.0941 0.7033 -5.7591 -6.3219 1.9657 -7.9112 5.3614 0.1601 -3.8535 2.8640 0.0000 -0.0000 0.0000 -85.1097 6.2238 22.1630 16.2353 -25.8387 -3.7479 -0.0000 -0.0000 2.5203 17.4875 8.7752 2.7518 -7.1250 0.0000 -0.0000 -8.1604 39.0495 1.2058 0.0000 -0.0000 0.0000 87.2375 -4.2161 36.3321 -15.1342 24.3328 -3.2811 0.0000 -0.0000 -13.3255 -16.6515 -0.5336 0.1596 7.1250 -0.0000 -0.0000 7.8424 -30.4852 2.8031
16.8398 15.4462 -0.6010 -176.0860 -80.7580 173.0620 0.0000 0.0000 0.0000 -22.1944 -15.9064 5.4529 1.5213 7.7884 22.0733 1.1965 18.9929 -34.7780 0.0028 0.3416 0.9385 0.0000 0.0000 0.0000 24.9928 15.2773 5.0487 -1.2552 -7.1027 20.0200 -2.3895 -19.3276 -41.0671 -0.2604 3.2829 -9.0674 -1.9297 1.4396 4.4032 -0.7331 1.7910 2.4025 0.2514 0.8609 -0.0370 0.7416 -5.7128 -6.3548 2.0071 -7.8586 5.4241 0.1669 -3.8242 2.8915 0.0000 -0.0000 0.0000 -85.0733 6.2049 22.3339 16.3802 -26.0334 -3.8113 -0.0000 -0.0000 2.5395 17.9702 9.0498 2.9205 -7.1250 0.0000 -0.0000 -7.7905 39.3710 1.0883 0.0000 -0.0000 0.0000 87.1696 -4.6621 39.5001 -16.4792 26.1661 -3.8548 0.0000 -0.0000 -19.3898 -15.6851 0.3545 -0.0995 7.1250 -0.0000 -0.0000 8.5227 -29.5598 3.2413
16.8393 15.4473 -0.6004 -177.6250 -80.8319 174.6250 0.0000 0.0000 0.0000 -22.4786 -15.9555 5.4940 1.5046 7.7473 21.9491 1.2006 18.9320 -34.7392 0.0072 0.5472 1.5035 0.0000 0.0000 0.0000 24.6856 15.2455 4.9304 -1.2674 -7.1359 20.1185 -2.3832 -19.3450 -41.0536 -0.2767 3.3833 -9.3477 -2.2045 1.4546 4.3825 -0.7954 1.8002 2.3587 0.3405 0.8641 -0.0767 0.7776 -5.6690 -6.2450 1.9679 -7.7973 5.3722 0.1560 -3.7961 2.8493 -0.0000 -0.0000 0.0000 -85.0969 6.3275 22.3986 16.5159 -26.2152 -3.8711 -0.0000 -0.0000 2.5258 17.4897 9.6825 3.0336 -7.1250 0.0000 -0.0000 -8.3109 39.9875 1.0351 -0.0000 -0.0000 0.0000 87.1259 -4.7399 39.6057 -16.4576 26.1372 -3.8454 0.0000 -0.0000 -19.5116 -15.8539 0.3735 -0.1061 7.1250 -0.0000 -0.0000 8.3895 -29.5414 3.1933
16.8406 15.4485 -0.6003 -177.6280 -80.8999 174.6390 0.0000 0.0000 0.0000 -22.4583 -15.9111 5.4900 1.4931 7.7190 21.8637 1.1584 18.9603 -34.5300 0.0063 0.5126 1.4085 0.0000 0.0000 0.0000 24.6915 15.3001 4.9020 -1.2761 -7.1592 20.1878 -2.4070 -19.3729 -41.1845 -0.2734 3.3635 -9.2924 -2.2423 1.4207 4.4685 -0.7721 1.7511 2.3005 0.3847 0.8409 -0.1851 0.8425 -5.6017 -6.2151 1.8114 -7.7011 5.3767 0.1008 -3.7523 2.8344 0.0000 0.0000 0.0000 -85.2020 6.4554 22.2767 16.5752 -26.2943 -3.8973 -0.0000 -0.0000 2.5424 17.3870 9.4363 2.9389 -7.1250 0.0000 -0.0000 -8.3571 39.7248 1.0954 0.0000 0.0000 0.0000 87.0506 -4.8239 39.7334 -16.4647 26.1466 -3.8484 0.0000 -0.0000 -19.5303 -15.9669 0.3037 -0.0869 7.1250 -0.0000 -0.0000 8.3073 -29.6141 3.1469
16.8450 15.4496 -0.6009 -176.5030 -80.9941 173.5210 0.0000 0.0000 0.0000 -22.2246 -15.8694 5.4294 1.4919 7.7161 21.8551 1.1241 18.9383 -34.3120 0.0040 0.4109 1.1290 0.0000 0.0000 0.0000 24.9141 15.3691 4.9342 -1.2777 -7.1635 20.2007 -2.4517 -19.4017 -41.4094 -0.2706 3.3462 -9.2441 -2.1031 1.3756 4.5724 -0.7162 1.6944 2.2710 0.3639 0.8147 -0.2698 0.9789 -5.5465 -6.2485 1.6220 -7.6272 5.4223 0.0194 -3.7183 2.8412 0.0000 0.0000 0.0000 -85.2490 6.4603 22.2142 16.5938 -26.3191 -3.9055 -0.0000 -0.0000 2.4925 17.2777 9.4384 2.9199 -7.1250 0.0000 -0.0000 -8.4518 39.7183 1.1094 0.0000 0.0000 0.0000 87.0120 -4.8823 39.7985 -16.5031 26.1980 -3.8654 0.0000 -0.0000 -19.4742 -16.0213 0.1884 -0.0541 7.1250 -0.0000 -0.0000 8.2747 -29.7334 3.1105
16.8488 15.4498 -0.6016 -176.4850 -81.1062 173.5300 0.0000 0.0000 0.0000 -22.1861 -15.8771 5.3188 1.4988 7.7330 21.9060 1.1182 18.8633 -34.2006 0.0035 0.3830 1.0522 0.0000 0.0000 0.0000 24.9109 15.3632 4.9318 -1.2702 -7.1433 20.1407 -2.4498 -19.4907 -41.4752 -0.2866 3.4429 -9.5144 -2.1160 1.3395 4.5921 -0.7407 1.6448 2.2602 0.3477 0.7902 -0.2904 1.1463 -5.5286 -6.2546 1.4701 -7.6073 5.4233 -0.0558 -3.7101 2.8285 -0.0000 -0.0000 0.0000 -85.2152 6.4049 22.1875 16.5767 -26.2963 -3.8979 -0.0000 -0.0000 2.4444 17.2057 9.5937 2.9543 -7.1250 0.0000 -0.0000 -8.5409 39.8726 1.0886 -0.0000 -0.0000 0.0000 87.0317 -4.9008 39.8562 -16.5224 26.2238 -3.8739 0.0000 -0.0000 -19.4130 -16.0096 0.1217 -0.0349 7.1250 -0.0000 -0.0000 8.2895 -29.8019 3.1025
16.8498 15.4500 -0.6013 -176.7930 -81.1775 173.8830 0.0000 0.0000 0.0000 -22.2212 -15.9091 5.2321 1.5036 7.7449 21.9418 1.1285 18.7943 -34.1891 0.0031 0.3575 0.9822 0.0000 0.0000 0.0000 24.8299 15.3283 4.8922 -1.2642 -7.1272 20.0927 -2.4407 -19.4871 -41.4316 -0.2757 3.3775 -9.3315 -2.1378 1.3328 4.5426 -0.7972 1.6358 2.2643 0.3038 0.7853 -0.2574 1.2344 -5.5764 -6.2025 1.4346 -7.6741 5.3628 -0.0814 -3.7440 2.7929 -0.0000 -0.0000 0.0000 -85.1535 6.2997 22.1690 16.5136 -26.2121 -3.8701 -0.0000 -0.0000 2.4906 17.3115 9.5264 2.9530 -7.1250 0.0000 -0.0000 -8.4378 39.8118 1.0880 -0.0000 -0.0000 0.0000 87.1015 -4.8879 39.7860 -16.5348 26.2404 -3.8794 0.0000 -0.0000 -19.3181 -15.8861 0.1016 -0.0289 7.1250 -0.0000 -0.0000 8.3877 -29.8215 3.1361
